<svg width="14" height="14" viewBox="0 0 14 14" fill="none" xmlns="http://www.w3.org/2000/svg">
<path d="M12.78 5.93L7.9 5.9L7.94 1.01C7.94 0.46 7.5 0 6.94 0C6.39 0.03 5.94 0.44 5.93 0.99L5.9 5.88L1.01 5.84C1.01 5.84 1.01 5.84 1 5.84C0.45 5.84 0 6.28 0 6.83C0 7.38 0.44 7.83 0.99 7.84L5.88 7.88L5.84 12.77C5.84 13.32 6.28 13.77 6.83 13.78C6.83 13.78 6.83 13.78 6.84 13.78C7.39 13.78 7.84 13.34 7.84 12.79L7.88 7.9L12.77 7.94C12.77 7.94 12.77 7.94 12.78 7.94C13.33 7.94 13.78 7.5 13.78 6.95C13.78 6.39 13.34 5.94 12.78 5.93Z" fill="white"/>
</svg>
