<svg width="124" height="24" viewBox="0 0 124 24" fill="none" xmlns="http://www.w3.org/2000/svg">
<path d="M62.9845 21.4515C63.2553 21.4515 63.5014 21.501 63.6983 21.6495V22.0206C63.526 21.8722 63.2799 21.7979 63.0337 21.7979C62.5907 21.7979 62.0985 22.0454 62.0985 22.6639C62.0985 23.2577 62.5661 23.5299 63.0091 23.5299C63.2553 23.5299 63.526 23.4557 63.7229 23.332V23.7526C63.5014 23.8515 63.2553 23.9258 62.9599 23.9258C62.3446 23.9258 61.7047 23.5299 61.7047 22.6887C61.7047 21.8227 62.3692 21.4515 62.9845 21.4515Z" fill="white"/>
<path d="M62.9845 21.4515C63.2553 21.4515 63.5014 21.501 63.6983 21.6495V22.0206C63.526 21.8722 63.2799 21.7979 63.0337 21.7979C62.5907 21.7979 62.0985 22.0454 62.0985 22.6639C62.0985 23.2577 62.5661 23.5299 63.0091 23.5299C63.2553 23.5299 63.526 23.4557 63.7229 23.332V23.7526C63.5014 23.8515 63.2553 23.9258 62.9599 23.9258C62.3446 23.9258 61.7047 23.5299 61.7047 22.6887C61.7047 21.8227 62.3692 21.4515 62.9845 21.4515Z" fill="white"/>
<path d="M67.0457 21.5011V23.8516H66.7011V23.5052C66.5534 23.7031 66.2334 23.9011 65.8642 23.9011C65.2489 23.9011 64.8797 23.5052 64.8797 22.9361V21.4763H65.2735V22.8866C65.2735 23.332 65.495 23.5299 65.8888 23.5299C66.2334 23.5299 66.5042 23.2825 66.6518 23.0598V21.4763H67.0457V21.5011Z" fill="white"/>
<path d="M67.0457 21.5011V23.8516H66.7011V23.5052C66.5534 23.7031 66.2334 23.9011 65.8642 23.9011C65.2489 23.9011 64.8797 23.5052 64.8797 22.9361V21.4763H65.2735V22.8866C65.2735 23.332 65.495 23.5299 65.8888 23.5299C66.2334 23.5299 66.5042 23.2825 66.6518 23.0598V21.4763H67.0457V21.5011Z" fill="white"/>
<path d="M69.1378 21.4515C69.4577 21.4515 69.7531 21.5258 69.9746 21.6495V22.0206C69.7777 21.8969 69.4577 21.7979 69.1624 21.7979C68.9162 21.7979 68.6455 21.8722 68.6455 22.1196C68.6455 22.6392 70.1469 22.4165 70.1469 23.2577C70.1469 23.7526 69.6792 23.9258 69.187 23.9258C68.8424 23.9258 68.4978 23.8268 68.2763 23.7031V23.332C68.5224 23.5051 68.867 23.5794 69.1624 23.5794C69.507 23.5794 69.7531 23.5299 69.7531 23.2825C69.7531 22.7876 68.2517 22.9856 68.2517 22.1443C68.2517 21.6247 68.7193 21.4515 69.1378 21.4515Z" fill="white"/>
<path d="M69.1378 21.4515C69.4577 21.4515 69.7531 21.5258 69.9746 21.6495V22.0206C69.7777 21.8969 69.4577 21.7979 69.1624 21.7979C68.9162 21.7979 68.6455 21.8722 68.6455 22.1196C68.6455 22.6392 70.1469 22.4165 70.1469 23.2577C70.1469 23.7526 69.6792 23.9258 69.187 23.9258C68.8424 23.9258 68.4978 23.8268 68.2763 23.7031V23.332C68.5224 23.5051 68.867 23.5794 69.1624 23.5794C69.507 23.5794 69.7531 23.5299 69.7531 23.2825C69.7531 22.7876 68.2517 22.9856 68.2517 22.1443C68.2517 21.6247 68.7193 21.4515 69.1378 21.4515Z" fill="white"/>
<path d="M71.8452 20.6846V21.5011H72.7805V21.8722H71.8452V23.0846C71.8452 23.431 72.0175 23.5547 72.3374 23.5547C72.5343 23.5547 72.7066 23.5052 72.8543 23.4557V23.8268C72.682 23.9011 72.4605 23.9258 72.2144 23.9258C71.7713 23.9258 71.4268 23.6784 71.4268 23.1588V21.8722H70.9837V21.5011H71.4268V20.7835L71.8452 20.6846Z" fill="white"/>
<path d="M71.8452 20.6846V21.5011H72.7805V21.8722H71.8452V23.0846C71.8452 23.431 72.0175 23.5547 72.3374 23.5547C72.5343 23.5547 72.7066 23.5052 72.8543 23.4557V23.8268C72.682 23.9011 72.4605 23.9258 72.2144 23.9258C71.7713 23.9258 71.4268 23.6784 71.4268 23.1588V21.8722H70.9837V21.5011H71.4268V20.7835L71.8452 20.6846Z" fill="white"/>
<path d="M75.0202 21.8227C74.5526 21.8227 74.1588 22.1443 74.1588 22.6887C74.1588 23.233 74.528 23.5546 75.0202 23.5546C75.4879 23.5546 75.8817 23.233 75.8817 22.6887C75.8817 22.1443 75.5125 21.8227 75.0202 21.8227ZM75.0202 21.4515C75.6602 21.4515 76.2509 21.8722 76.2509 22.6887C76.2509 23.4804 75.6356 23.9258 75.0202 23.9258C74.3803 23.9258 73.7896 23.5051 73.7896 22.6887C73.7896 21.8722 74.4049 21.4515 75.0202 21.4515Z" fill="white"/>
<path d="M75.0202 21.8227C74.5526 21.8227 74.1588 22.1443 74.1588 22.6887C74.1588 23.233 74.528 23.5546 75.0202 23.5546C75.4879 23.5546 75.8817 23.233 75.8817 22.6887C75.8817 22.1443 75.5125 21.8227 75.0202 21.8227ZM75.0202 21.4515C75.6602 21.4515 76.2509 21.8722 76.2509 22.6887C76.2509 23.4804 75.6356 23.9258 75.0202 23.9258C74.3803 23.9258 73.7896 23.5051 73.7896 22.6887C73.7896 21.8722 74.4049 21.4515 75.0202 21.4515Z" fill="white"/>
<path d="M77.4569 23.8515V21.501H77.8015V21.8227C77.9246 21.6742 78.1953 21.4515 78.5891 21.4515C78.9337 21.4515 79.1798 21.6 79.3275 21.8474C79.5244 21.6247 79.8198 21.4515 80.1644 21.4515C80.7305 21.4515 81.0504 21.8722 81.0504 22.4165V23.8763H80.6566V22.4165C80.6566 22.0701 80.4597 21.8227 80.1151 21.8227C79.7952 21.8227 79.5736 22.0454 79.4506 22.2185C79.4506 22.2928 79.4752 22.367 79.4752 22.4412V23.901H79.0814V22.4412C79.0814 22.0948 78.8845 21.8474 78.5399 21.8474C78.1953 21.8474 77.9492 22.1196 77.8261 22.268V23.901H77.4569V23.8515Z" fill="white"/>
<path d="M77.4569 23.8515V21.501H77.8015V21.8227C77.9246 21.6742 78.1953 21.4515 78.5891 21.4515C78.9337 21.4515 79.1798 21.6 79.3275 21.8474C79.5244 21.6247 79.8198 21.4515 80.1644 21.4515C80.7305 21.4515 81.0504 21.8722 81.0504 22.4165V23.8763H80.6566V22.4165C80.6566 22.0701 80.4597 21.8227 80.1151 21.8227C79.7952 21.8227 79.5736 22.0454 79.4506 22.2185C79.4506 22.2928 79.4752 22.367 79.4752 22.4412V23.901H79.0814V22.4412C79.0814 22.0948 78.8845 21.8474 78.5399 21.8474C78.1953 21.8474 77.9492 22.1196 77.8261 22.268V23.901H77.4569V23.8515Z" fill="white"/>
<path d="M82.3795 21.5258H82.7979V23.8516H82.3795V21.5258ZM82.601 21.031C82.4534 21.031 82.3303 20.9568 82.3303 20.7836C82.3303 20.6104 82.4534 20.5361 82.601 20.5361C82.7487 20.5361 82.8718 20.6351 82.8718 20.7836C82.8718 20.932 82.7487 21.031 82.601 21.031Z" fill="white"/>
<path d="M82.3795 21.5258H82.7979V23.8516H82.3795V21.5258ZM82.601 21.031C82.4534 21.031 82.3303 20.9568 82.3303 20.7836C82.3303 20.6104 82.4534 20.5361 82.601 20.5361C82.7487 20.5361 82.8718 20.6351 82.8718 20.7836C82.8718 20.932 82.7487 21.031 82.601 21.031Z" fill="white"/>
<path d="M85.8499 21.501V21.8474L84.4716 23.5051H85.9238V23.8515H84.004V23.5051L85.3823 21.8474H84.0532V21.501H85.8499Z" fill="white"/>
<path d="M85.8499 21.501V21.8474L84.4716 23.5051H85.9238V23.8515H84.004V23.5051L85.3823 21.8474H84.0532V21.501H85.8499Z" fill="white"/>
<path d="M88.0897 21.7979C87.6959 21.7979 87.3267 22.0454 87.3021 22.4907H88.8035C88.8281 22.268 88.6804 21.7979 88.0897 21.7979ZM88.0651 21.4515C88.9512 21.4515 89.2958 22.1938 89.1481 22.8618H87.3021C87.3513 23.3567 87.7944 23.5546 88.262 23.5546C88.5574 23.5546 88.8281 23.4804 89.025 23.3567V23.7526C88.8035 23.8763 88.5081 23.9258 88.1882 23.9258C87.499 23.9258 86.9083 23.5299 86.9083 22.6887C86.8837 21.8474 87.499 21.4515 88.0651 21.4515Z" fill="white"/>
<path d="M88.0897 21.7979C87.6959 21.7979 87.3267 22.0454 87.3021 22.4907H88.8035C88.8281 22.268 88.6804 21.7979 88.0897 21.7979ZM88.0651 21.4515C88.9512 21.4515 89.2958 22.1938 89.1481 22.8618H87.3021C87.3513 23.3567 87.7944 23.5546 88.262 23.5546C88.5574 23.5546 88.8281 23.4804 89.025 23.3567V23.7526C88.8035 23.8763 88.5081 23.9258 88.1882 23.9258C87.499 23.9258 86.9083 23.5299 86.9083 22.6887C86.8837 21.8474 87.499 21.4515 88.0651 21.4515Z" fill="white"/>
<path d="M91.3879 21.8227C90.9448 21.8227 90.5756 22.1444 90.5756 22.6887C90.5756 23.233 90.9448 23.5547 91.3879 23.5547C91.8063 23.5547 92.1262 23.2825 92.2493 22.9856V22.3918C92.1262 22.0949 91.8063 21.8227 91.3879 21.8227ZM92.6431 20.4619V23.8763H92.2985V23.4805C92.1016 23.7279 91.8063 23.9258 91.3632 23.9258C90.6987 23.9258 90.2064 23.4062 90.2064 22.7135C90.2064 22.0207 90.6987 21.4763 91.3632 21.4763C91.8063 21.4763 92.1016 21.6743 92.2739 21.897V20.4867H92.6431V20.4619Z" fill="white"/>
<path d="M91.3879 21.8227C90.9448 21.8227 90.5756 22.1444 90.5756 22.6887C90.5756 23.233 90.9448 23.5547 91.3879 23.5547C91.8063 23.5547 92.1262 23.2825 92.2493 22.9856V22.3918C92.1262 22.0949 91.8063 21.8227 91.3879 21.8227ZM92.6431 20.4619V23.8763H92.2985V23.4805C92.1016 23.7279 91.8063 23.9258 91.3632 23.9258C90.6987 23.9258 90.2064 23.4062 90.2064 22.7135C90.2064 22.0207 90.6987 21.4763 91.3632 21.4763C91.8063 21.4763 92.1016 21.6743 92.2739 21.897V20.4867H92.6431V20.4619Z" fill="white"/>
<path d="M96.9011 21.7979C96.5073 21.7979 96.1381 22.0454 96.1135 22.4907H97.6149C97.6641 22.268 97.4919 21.7979 96.9011 21.7979ZM96.8765 21.4515C97.7626 21.4515 98.1072 22.1938 97.9595 22.8618H96.1135C96.1628 23.3567 96.6058 23.5546 97.0734 23.5546C97.3688 23.5546 97.6395 23.4804 97.8364 23.3567V23.7526C97.6149 23.8763 97.3196 23.9258 96.9996 23.9258C96.3104 23.9258 95.7197 23.5299 95.7197 22.6887C95.7197 21.8474 96.3351 21.4515 96.8765 21.4515Z" fill="white"/>
<path d="M96.9011 21.7979C96.5073 21.7979 96.1381 22.0454 96.1135 22.4907H97.6149C97.6641 22.268 97.4919 21.7979 96.9011 21.7979ZM96.8765 21.4515C97.7626 21.4515 98.1072 22.1938 97.9595 22.8618H96.1135C96.1628 23.3567 96.6058 23.5546 97.0734 23.5546C97.3688 23.5546 97.6395 23.4804 97.8364 23.3567V23.7526C97.6149 23.8763 97.3196 23.9258 96.9996 23.9258C96.3104 23.9258 95.7197 23.5299 95.7197 22.6887C95.7197 21.8474 96.3351 21.4515 96.8765 21.4515Z" fill="white"/>
<path d="M101.085 21.501L100.199 22.6391L101.135 23.8515H100.667L99.9778 22.936L99.264 23.8515H98.821L99.7562 22.6391L98.8702 21.501H99.3132L99.9778 22.367L100.618 21.501H101.085Z" fill="white"/>
<path d="M101.085 21.501L100.199 22.6391L101.135 23.8515H100.667L99.9778 22.936L99.264 23.8515H98.821L99.7562 22.6391L98.8702 21.501H99.3132L99.9778 22.367L100.618 21.501H101.085Z" fill="white"/>
<path d="M103.177 21.4515C103.448 21.4515 103.694 21.501 103.891 21.6495V22.0206C103.719 21.8722 103.473 21.7979 103.227 21.7979C102.784 21.7979 102.291 22.0454 102.291 22.6639C102.291 23.2577 102.759 23.5299 103.202 23.5299C103.448 23.5299 103.719 23.4557 103.916 23.332V23.7526C103.694 23.8515 103.448 23.9258 103.153 23.9258C102.538 23.9258 101.898 23.5299 101.898 22.6887C101.898 21.8227 102.562 21.4515 103.177 21.4515Z" fill="white"/>
<path d="M103.177 21.4515C103.448 21.4515 103.694 21.501 103.891 21.6495V22.0206C103.719 21.8722 103.473 21.7979 103.227 21.7979C102.784 21.7979 102.291 22.0454 102.291 22.6639C102.291 23.2577 102.759 23.5299 103.202 23.5299C103.448 23.5299 103.719 23.4557 103.916 23.332V23.7526C103.694 23.8515 103.448 23.9258 103.153 23.9258C102.538 23.9258 101.898 23.5299 101.898 22.6887C101.898 21.8227 102.562 21.4515 103.177 21.4515Z" fill="white"/>
<path d="M106.106 21.7979C105.713 21.7979 105.343 22.0454 105.319 22.4907H106.82C106.845 22.268 106.697 21.7979 106.106 21.7979ZM106.082 21.4515C106.968 21.4515 107.312 22.1938 107.165 22.8618H105.319C105.368 23.3567 105.811 23.5546 106.279 23.5546C106.574 23.5546 106.845 23.4804 107.042 23.3567V23.7526C106.82 23.8763 106.525 23.9258 106.205 23.9258C105.516 23.9258 104.925 23.5299 104.925 22.6887C104.925 21.8474 105.516 21.4515 106.082 21.4515Z" fill="white"/>
<path d="M106.106 21.7979C105.713 21.7979 105.343 22.0454 105.319 22.4907H106.82C106.845 22.268 106.697 21.7979 106.106 21.7979ZM106.082 21.4515C106.968 21.4515 107.312 22.1938 107.165 22.8618H105.319C105.368 23.3567 105.811 23.5546 106.279 23.5546C106.574 23.5546 106.845 23.4804 107.042 23.3567V23.7526C106.82 23.8763 106.525 23.9258 106.205 23.9258C105.516 23.9258 104.925 23.5299 104.925 22.6887C104.925 21.8474 105.516 21.4515 106.082 21.4515Z" fill="white"/>
<path d="M108.814 20.3135H108.371V23.8516H108.814V20.3135Z" fill="white"/>
<path d="M108.814 20.3135H108.371V23.8516H108.814V20.3135Z" fill="white"/>
<path d="M110.635 20.3135H110.192V23.8516H110.635V20.3135Z" fill="white"/>
<path d="M110.635 20.3135H110.192V23.8516H110.635V20.3135Z" fill="white"/>
<path d="M41.5959 13.3855H44.7463V14.3505H40.0699L43.1219 8.1649H40.1191V7.19995H44.6479L41.5959 13.3855Z" fill="white"/>
<path d="M85.8499 21.501V21.8474L84.4716 23.5051H85.9238V23.8515H84.004V23.5051L85.3823 21.8474H84.0532V21.501H85.8499Z" fill="white"/>
<path d="M85.8499 21.501V21.8474L84.4716 23.5051H85.9238V23.8515H84.004V23.5051L85.3823 21.8474H84.0532V21.501H85.8499Z" fill="white"/>
<path d="M101.085 21.501L100.199 22.6391L101.135 23.8515H100.667L99.9778 22.936L99.264 23.8515H98.821L99.7562 22.6391L98.8702 21.501H99.3132L99.9778 22.367L100.618 21.501H101.085Z" fill="white"/>
<path d="M101.085 21.501L100.199 22.6391L101.135 23.8515H100.667L99.9778 22.936L99.264 23.8515H98.821L99.7562 22.6391L98.8702 21.501H99.3132L99.9778 22.367L100.618 21.501H101.085Z" fill="white"/>
<path d="M108.814 20.3135H108.371V23.8516H108.814V20.3135Z" fill="white"/>
<path d="M108.814 20.3135H108.371V23.8516H108.814V20.3135Z" fill="white"/>
<path d="M110.635 20.3135H110.192V23.8516H110.635V20.3135Z" fill="white"/>
<path d="M110.635 20.3135H110.192V23.8516H110.635V20.3135Z" fill="white"/>
<path d="M113.023 21.7979C112.629 21.7979 112.26 22.0454 112.235 22.4907H113.736C113.761 22.268 113.613 21.7979 113.023 21.7979ZM112.998 21.4515C113.884 21.4515 114.229 22.1938 114.081 22.8618H112.235C112.284 23.3567 112.727 23.5546 113.195 23.5546C113.49 23.5546 113.761 23.4804 113.958 23.3567V23.7526C113.736 23.8763 113.441 23.9258 113.121 23.9258C112.432 23.9258 111.841 23.5299 111.841 22.6887C111.841 21.8474 112.432 21.4515 112.998 21.4515Z" fill="white"/>
<path d="M113.023 21.7979C112.629 21.7979 112.26 22.0454 112.235 22.4907H113.736C113.761 22.268 113.613 21.7979 113.023 21.7979ZM112.998 21.4515C113.884 21.4515 114.229 22.1938 114.081 22.8618H112.235C112.284 23.3567 112.727 23.5546 113.195 23.5546C113.49 23.5546 113.761 23.4804 113.958 23.3567V23.7526C113.736 23.8763 113.441 23.9258 113.121 23.9258C112.432 23.9258 111.841 23.5299 111.841 22.6887C111.841 21.8474 112.432 21.4515 112.998 21.4515Z" fill="white"/>
<path d="M116.468 21.4515C117.035 21.4515 117.453 21.8474 117.453 22.4165V23.8763H117.059V22.466C117.059 22.0206 116.788 21.8227 116.444 21.8227C116.099 21.8227 115.853 22.0701 115.681 22.2928V23.8763H115.287V21.5258H115.632V21.8722C115.804 21.6495 116.099 21.4515 116.468 21.4515Z" fill="white"/>
<path d="M116.468 21.4515C117.035 21.4515 117.453 21.8474 117.453 22.4165V23.8763H117.059V22.466C117.059 22.0206 116.788 21.8227 116.444 21.8227C116.099 21.8227 115.853 22.0701 115.681 22.2928V23.8763H115.287V21.5258H115.632V21.8722C115.804 21.6495 116.099 21.4515 116.468 21.4515Z" fill="white"/>
<path d="M119.89 21.4515C120.16 21.4515 120.407 21.501 120.603 21.6495V22.0206C120.431 21.8722 120.185 21.7979 119.939 21.7979C119.496 21.7979 119.004 22.0454 119.004 22.6639C119.004 23.2577 119.471 23.5299 119.914 23.5299C120.16 23.5299 120.431 23.4557 120.628 23.332V23.7526C120.407 23.8515 120.16 23.9258 119.865 23.9258C119.25 23.9258 118.61 23.5299 118.61 22.6887C118.61 21.8227 119.274 21.4515 119.89 21.4515Z" fill="white"/>
<path d="M119.89 21.4515C120.16 21.4515 120.407 21.501 120.603 21.6495V22.0206C120.431 21.8722 120.185 21.7979 119.939 21.7979C119.496 21.7979 119.004 22.0454 119.004 22.6639C119.004 23.2577 119.471 23.5299 119.914 23.5299C120.16 23.5299 120.431 23.4557 120.628 23.332V23.7526C120.407 23.8515 120.16 23.9258 119.865 23.9258C119.25 23.9258 118.61 23.5299 118.61 22.6887C118.61 21.8227 119.274 21.4515 119.89 21.4515Z" fill="white"/>
<path d="M122.819 21.7979C122.425 21.7979 122.056 22.0454 122.031 22.4907H123.532C123.557 22.268 123.409 21.7979 122.819 21.7979ZM122.794 21.4515C123.68 21.4515 124.025 22.1938 123.877 22.8618H122.031C122.08 23.3567 122.523 23.5546 122.991 23.5546C123.286 23.5546 123.557 23.4804 123.754 23.3567V23.7526C123.532 23.8763 123.237 23.9258 122.917 23.9258C122.228 23.9258 121.637 23.5299 121.637 22.6887C121.637 21.8474 122.228 21.4515 122.794 21.4515Z" fill="white"/>
<path d="M122.819 21.7979C122.425 21.7979 122.056 22.0454 122.031 22.4907H123.532C123.557 22.268 123.409 21.7979 122.819 21.7979ZM122.794 21.4515C123.68 21.4515 124.025 22.1938 123.877 22.8618H122.031C122.08 23.3567 122.523 23.5546 122.991 23.5546C123.286 23.5546 123.557 23.4804 123.754 23.3567V23.7526C123.532 23.8763 123.237 23.9258 122.917 23.9258C122.228 23.9258 121.637 23.5299 121.637 22.6887C121.637 21.8474 122.228 21.4515 122.794 21.4515Z" fill="white"/>
<path d="M36.8948 13.3855C36.1318 14.1773 35.2457 14.5484 34.1874 14.5484C33.1536 14.5484 32.2922 14.1773 31.5292 13.435C30.7908 12.6928 30.4216 11.802 30.4216 10.7629C30.4216 9.72369 30.7908 8.80822 31.5292 8.0907C32.2676 7.34843 33.1536 6.97729 34.1874 6.97729C35.2457 6.97729 36.1564 7.37317 36.8948 8.14018L37.9285 7.15049V14.3505L36.8948 13.3855ZM34.1628 7.96699C33.3752 7.96699 32.7106 8.23915 32.1691 8.78348C31.6276 9.32781 31.3569 9.99585 31.3569 10.7876C31.3569 11.5794 31.6276 12.2474 32.1691 12.7917C32.7106 13.3361 33.3752 13.6082 34.1628 13.6082C34.9504 13.6082 35.6149 13.3361 36.1564 12.7917C36.6979 12.2474 36.9686 11.5794 36.9686 10.7876C36.9686 9.99585 36.6979 9.35255 36.1564 8.78348C35.6149 8.23915 34.9504 7.96699 34.1628 7.96699Z" fill="white"/>
<path d="M41.5959 13.3855H44.7463V14.3505H40.0699L43.1219 8.1649H40.1191V7.19995H44.6479L41.5959 13.3855Z" fill="white"/>
<path d="M52.6471 12.0989L53.4839 12.569C53.164 13.1629 52.7209 13.6577 52.1302 14.0041C51.5395 14.3752 50.875 14.5484 50.1858 14.5484C49.152 14.5484 48.2906 14.1773 47.5276 13.435C46.7892 12.6928 46.42 11.802 46.42 10.7629C46.42 9.72369 46.7892 8.80822 47.5276 8.0907C48.266 7.34843 49.152 6.97729 50.1858 6.97729C50.8257 6.97729 51.4411 7.15049 52.0318 7.47214C52.5979 7.79379 53.0409 8.21441 53.3609 8.70925L48.4875 13.0392C48.9798 13.4103 49.5459 13.6082 50.1858 13.6082C50.7273 13.6082 51.1949 13.4845 51.638 13.2123C52.0564 12.9402 52.401 12.5691 52.6471 12.0989ZM47.823 12.3711L51.9825 8.65977C51.4657 8.21441 50.8503 7.96699 50.1612 7.96699C49.3736 7.96699 48.709 8.23915 48.1675 8.78348C47.626 9.32781 47.3553 9.99585 47.3553 10.7876C47.3553 11.3567 47.5276 11.8763 47.823 12.3711Z" fill="white"/>
<path d="M59.4649 7.17527L59.0218 8.04125C58.8742 7.99177 58.7019 7.96702 58.505 7.96702C57.9635 7.96702 57.5204 8.14022 57.2005 8.51135C56.8559 8.88249 56.6836 9.30311 56.6836 9.79795V14.3505H55.7237V7.20001L56.5359 7.84331C57.0774 7.27424 57.742 7.00208 58.5296 7.00208C58.8742 7.00208 59.1941 7.05156 59.4649 7.17527Z" fill="white"/>
<path d="M67.4395 8.3629L66.7011 8.95671C66.135 8.28867 65.4212 7.96702 64.5597 7.96702C63.7721 7.96702 63.1076 8.23919 62.5661 8.78352C62.0246 9.32785 61.7539 9.99589 61.7539 10.7876C61.7539 11.5794 62.0246 12.2474 62.5661 12.7918C63.1076 13.3361 63.7721 13.6083 64.5597 13.6083C65.3966 13.6083 66.1104 13.2866 66.6518 12.6681L67.4148 13.2619C67.0457 13.6825 66.6272 14.0041 66.135 14.2268C65.6427 14.4495 65.1258 14.5732 64.5597 14.5732C63.5506 14.5732 62.6646 14.2021 61.9016 13.4598C61.1632 12.7175 60.794 11.8268 60.794 10.7876C60.794 9.74847 61.1632 8.833 61.9016 8.11548C62.6399 7.37321 63.526 7.00208 64.5597 7.00208C65.1505 7.00208 65.6919 7.12579 66.1842 7.34847C66.6518 7.59589 67.0949 7.91754 67.4395 8.3629Z" fill="white"/>
<path d="M72.9035 7.00208C73.9373 7.00208 74.848 7.37321 75.5617 8.11548C76.2755 8.85775 76.6693 9.74847 76.6693 10.7876C76.6693 11.8268 76.3001 12.6928 75.5617 13.4598C74.8233 14.2021 73.9373 14.5732 72.9035 14.5732C71.8698 14.5732 71.0083 14.2021 70.2453 13.4598C69.507 12.7175 69.1378 11.8268 69.1378 10.7876C69.1378 9.74847 69.507 8.833 70.2453 8.11548C70.9837 7.37321 71.8698 7.00208 72.9035 7.00208ZM72.9035 7.96702C72.1159 7.96702 71.4514 8.23919 70.9099 8.78352C70.3684 9.32785 70.0977 9.99589 70.0977 10.7876C70.0977 11.5794 70.3684 12.2474 70.9099 12.7918C71.4514 13.3361 72.1159 13.6083 72.9035 13.6083C73.6912 13.6083 74.3311 13.3361 74.8972 12.7918C75.4387 12.2474 75.7094 11.5794 75.7094 10.7876C75.7094 9.99589 75.4387 9.35259 74.8972 8.78352C74.3311 8.23919 73.6665 7.96702 72.9035 7.96702Z" fill="white"/>
<path d="M79.3275 12.8412C79.549 13.3113 79.9428 13.534 80.4843 13.534C80.8535 13.534 81.1489 13.4103 81.395 13.1629C81.6411 12.9155 81.7642 12.6186 81.7642 12.2474C81.7642 11.9505 81.6904 11.7031 81.5181 11.4804C81.3458 11.2577 81.1489 11.1093 80.8781 11.0351L80.0413 10.7876C79.6229 10.6639 79.2783 10.4165 79.0322 10.0949C78.786 9.7732 78.6384 9.37733 78.6384 8.95671C78.6384 8.43712 78.8106 7.99176 79.1798 7.62062C79.549 7.24949 79.9921 7.07629 80.5089 7.07629C80.8781 7.07629 81.2227 7.17526 81.5427 7.39794C81.8626 7.62062 82.0842 7.89279 82.2318 8.23918L81.3704 8.61031C81.2227 8.23918 80.952 8.04124 80.5089 8.04124C80.2382 8.04124 80.0167 8.14021 79.8444 8.31341C79.6721 8.51135 79.5736 8.70928 79.5736 8.95671C79.5736 9.42681 79.7952 9.72372 80.2628 9.84743L81.0996 10.0949C81.5673 10.2186 81.9611 10.4907 82.2565 10.8866C82.5518 11.2825 82.6995 11.7278 82.6995 12.2474C82.6995 12.668 82.601 13.0392 82.4041 13.3856C82.2072 13.732 81.9365 13.9794 81.5919 14.2021C81.2473 14.4 80.8781 14.499 80.4597 14.499C80.0413 14.499 79.6475 14.4 79.3029 14.1773C78.9583 13.9546 78.6876 13.6577 78.4661 13.2866L79.3275 12.8412Z" fill="white"/>
<path d="M95.1782 14.3505H94.2183V9.79791C94.2183 9.25358 94.0461 8.80822 93.6769 8.48657C93.3077 8.16492 92.8892 7.99173 92.397 7.99173C91.9293 7.99173 91.5109 8.16492 91.1417 8.48657C90.7725 8.80822 90.6002 9.25358 90.6002 9.79791V14.3505H89.6403V9.79791C89.6403 9.25358 89.468 8.80822 89.0989 8.48657C88.7297 8.16492 88.3112 7.99173 87.819 7.99173C87.3513 7.99173 86.9329 8.16492 86.5637 8.48657C86.1945 8.80822 86.0222 9.25358 86.0222 9.79791V14.3505H85.0623V7.19998L85.8746 7.81853C86.416 7.2742 87.0806 7.00204 87.8436 7.00204C88.3112 7.00204 88.7543 7.12575 89.1727 7.32369C89.5911 7.54637 89.9111 7.84327 90.1572 8.18967C90.7233 7.37317 91.4863 6.97729 92.4462 6.97729C92.8646 6.97729 93.2092 7.05152 93.5538 7.19998C93.8738 7.34843 94.1691 7.54637 94.4152 7.79379C94.6614 8.04121 94.8583 8.31338 95.006 8.65977C95.1536 8.98142 95.2275 9.35255 95.2275 9.77317V14.3505H95.1782Z" fill="white"/>
<path d="M101.282 7.00208C102.316 7.00208 103.227 7.37321 103.94 8.11548C104.679 8.85775 105.048 9.74847 105.048 10.7876C105.048 11.8268 104.679 12.6928 103.94 13.4598C103.202 14.2021 102.316 14.5732 101.282 14.5732C100.249 14.5732 99.3871 14.2021 98.6241 13.4598C97.8857 12.7175 97.5165 11.8268 97.5165 10.7876C97.5165 9.74847 97.8857 8.833 98.6241 8.11548C99.3625 7.37321 100.249 7.00208 101.282 7.00208ZM101.282 7.96702C100.495 7.96702 99.8301 8.23919 99.2886 8.78352C98.7471 9.32785 98.4764 9.99589 98.4764 10.7876C98.4764 11.5794 98.7471 12.2474 99.2886 12.7918C99.8301 13.3361 100.495 13.6083 101.282 13.6083C102.07 13.6083 102.71 13.3361 103.276 12.7918C103.817 12.2474 104.088 11.5794 104.088 10.7876C104.088 9.99589 103.817 9.35259 103.276 8.78352C102.71 8.23919 102.045 7.96702 101.282 7.96702Z" fill="white"/>
<path d="M107.706 12.8412C107.928 13.3113 108.322 13.534 108.863 13.534C109.232 13.534 109.528 13.4103 109.774 13.1629C110.02 12.9155 110.143 12.6186 110.143 12.2474C110.143 11.9505 110.069 11.7031 109.897 11.4804C109.725 11.2577 109.528 11.1093 109.257 11.0351L108.42 10.7876C108.002 10.6639 107.657 10.4165 107.411 10.0949C107.165 9.7732 107.017 9.37733 107.017 8.95671C107.017 8.43712 107.189 7.99176 107.559 7.62062C107.928 7.24949 108.371 7.07629 108.888 7.07629C109.257 7.07629 109.601 7.17526 109.921 7.39794C110.241 7.62062 110.463 7.89279 110.611 8.23918L109.749 8.61031C109.601 8.23918 109.331 8.04124 108.888 8.04124C108.617 8.04124 108.395 8.14021 108.223 8.31341C108.051 8.51135 107.952 8.70928 107.952 8.95671C107.952 9.42681 108.174 9.72372 108.642 9.84743L109.478 10.0949C109.946 10.2186 110.34 10.4907 110.635 10.8866C110.931 11.2825 111.078 11.7278 111.078 12.2474C111.078 12.668 110.98 13.0392 110.783 13.3856C110.586 13.732 110.315 13.9794 109.971 14.2021C109.626 14.4 109.257 14.499 108.838 14.499C108.42 14.499 108.026 14.4 107.682 14.1773C107.337 13.9546 107.066 13.6577 106.845 13.2866L107.706 12.8412Z" fill="white"/>
<path d="M22.5208 6.5072C18.2628 9.22885 14.6939 12.9897 12.1834 17.4185C14.7678 14.1278 17.9921 11.3814 21.684 9.35256C22.0286 10.4412 22.2255 11.6041 22.2255 12.7917C22.2255 18.8289 17.4752 23.7526 11.5189 23.9505C11.6419 23.9505 11.7896 23.9505 11.9127 23.9505C18.4843 23.9505 23.8253 18.5814 23.8253 11.9752C23.8253 10.7629 23.653 9.59999 23.3085 8.51133C23.1116 7.81854 22.8408 7.1505 22.5208 6.5072Z" fill="white"/>
<path d="M15.0139 2.35051C11.322 5.31959 8.14688 8.9567 5.73482 13.0887C9.18063 8.56082 13.611 4.8 18.7058 2.15258C18.5582 2.05361 18.4351 1.95464 18.2874 1.88041C18.2382 1.85567 18.2136 1.83093 18.1644 1.80619C18.0413 1.73196 17.9428 1.65773 17.8198 1.60825C17.7952 1.5835 17.7459 1.55876 17.7213 1.53402C17.5736 1.45979 17.4506 1.38557 17.3029 1.31134C17.3029 1.31134 17.2783 1.31134 17.2783 1.2866C15.6538 0.470103 13.8325 0 11.9127 0C5.34101 0 0 5.36907 0 11.9753C0 12.1237 0 12.2474 0 12.3711C0.221516 6.40825 5.11949 1.63299 11.1004 1.63299C12.4788 1.63299 13.8079 1.88041 15.0139 2.35051Z" fill="white"/>
<path d="M17.8936 7.12573C18.8781 6.45769 19.8873 5.8144 20.9456 5.24532C21.4625 4.97316 22.004 4.70099 22.5455 4.42883C22.8162 4.30512 23.0869 4.18141 23.3577 4.05769C23.5054 4.00821 23.6284 3.93398 23.7023 3.76079C23.7515 3.68656 23.8007 3.58759 23.8253 3.46388C23.8499 3.34017 23.8746 3.21646 23.8746 3.01852L23.7761 2.7711C23.6284 2.64738 23.53 2.57316 23.4069 2.49893C23.3331 2.47419 23.21 2.4247 23.1362 2.4247C22.9393 2.37522 22.7916 2.4247 22.6439 2.49893C22.3486 2.62264 22.0778 2.7711 21.8071 2.89481C21.241 3.16697 20.6995 3.46388 20.158 3.78553C19.075 4.40409 18.0167 5.07213 17.0075 5.81439C14.9893 7.29893 13.1187 8.98141 11.5189 10.8866C10.7066 11.8268 9.94363 12.8165 9.25447 13.8556C8.5653 14.8948 7.92537 15.9587 7.33466 17.0474C6.20246 19.2494 5.29178 21.5752 4.7503 23.9752C5.66098 21.6989 6.71933 19.4969 8.02382 17.4433C8.66376 16.4288 9.35292 15.4391 10.1159 14.4742C10.8543 13.534 11.6419 12.6185 12.4788 11.7525C14.1032 10.0206 15.9246 8.46182 17.8936 7.12573Z" fill="white"/>
</svg>
