<svg width="22" height="23" viewBox="0 0 22 23" fill="none" xmlns="http://www.w3.org/2000/svg">
<path d="M11.5005 0H10.2893C4.62135 0 0 4.60959 0 10.2893V11.8062C0 13.6289 0.493885 15.3222 1.32879 16.8039C1.1524 17.1684 1.04657 17.5682 1.04657 17.9915C1.04657 19.5085 2.28128 20.7432 3.79821 20.7432C4.17451 20.7432 4.52728 20.6726 4.85654 20.5315C6.43227 21.5193 8.29022 22.1072 10.2893 22.1072H11.5005C17.1684 22.1072 21.7897 17.4976 21.7897 11.818V10.301C21.778 4.62136 17.1684 0 11.5005 0ZM2.22248 17.9915C2.22248 17.1214 2.92803 16.4158 3.79821 16.4158C4.66839 16.4158 5.37394 17.1214 5.37394 17.9915C5.37394 18.8617 4.66839 19.5673 3.79821 19.5673C2.92803 19.5673 2.22248 18.85 2.22248 17.9915ZM19.4262 11.8062C19.4262 16.1806 15.8631 19.7436 11.4887 19.7436H10.2775C8.87817 19.7436 7.57291 19.3556 6.42051 18.7206C6.49106 18.4854 6.52634 18.2502 6.52634 17.9915C6.52634 16.4746 5.29163 15.2399 3.77469 15.2399C3.56303 15.2399 3.36312 15.2634 3.17498 15.3104C2.64581 14.2521 2.32832 13.0644 2.32832 11.8062V10.2893C2.32832 5.91486 5.89135 2.35183 10.2658 2.35183H11.477C15.8514 2.35183 19.4144 5.91486 19.4144 10.2893V11.8062H19.4262Z" fill="white"/>
</svg>
