<svg width="12" height="14" viewBox="0 0 12 14" fill="none" xmlns="http://www.w3.org/2000/svg">
<path d="M4.84211 1.51913L3.36842 0L1.38947 1.99657C1.22105 2.17019 1.22105 2.43061 1.38947 2.60423C1.55789 2.77784 1.81053 2.77784 1.97895 2.60423L3.36842 1.21531L4.25263 2.12678L0 6.51057L4.46316 11.1114L8.08421 7.37864L10.1053 6.9446L4.84211 1.51913ZM7.70526 6.55397L6.94737 7.33524H1.97895L1.17895 6.51057L4.8 2.77784L8.33684 6.42376L7.70526 6.55397Z" fill="white"/>
<path d="M10.6526 8.81088L10.3158 8.29004L9.97896 8.81088C9.76843 9.15811 8.63159 10.8509 8.63159 11.6755C8.63159 12.6304 9.38949 13.4117 10.3158 13.4117C11.2421 13.4117 12 12.6304 12 11.6755C12 10.8509 10.9053 9.15811 10.6526 8.81088ZM10.3158 12.5436C9.85264 12.5436 9.4737 12.153 9.4737 11.6755C9.4737 11.3717 9.85264 10.5904 10.3158 9.85257C10.779 10.5904 11.1579 11.3717 11.1579 11.6755C11.1579 12.153 10.779 12.5436 10.3158 12.5436Z" fill="white"/>
</svg>
