<svg width="20" height="23" viewBox="0 0 20 23" fill="none" xmlns="http://www.w3.org/2000/svg">
<path d="M19.0909 3.63636H18.6364H14.0909V1C14.0909 0.454545 13.6364 0 13.0909 0H6.90909C6.36364 0 5.90909 0.454545 5.90909 1V3.63636H1.36364H0.909091C0.363636 3.63636 0 4 0 4.54545C0 5.09091 0.363636 5.45455 0.909091 5.45455H1.36364V20.8182C1.36364 21.9091 2.18182 22.7273 3.27273 22.7273H16.7273C17.8182 22.7273 18.6364 21.9091 18.6364 20.8182V5.45455H19.0909C19.6364 5.45455 20 5.09091 20 4.54545C20 4 19.6364 3.63636 19.0909 3.63636ZM7.72727 1.81818H12.2727V3.63636H7.72727V1.81818ZM16.8182 20.8182C16.8182 20.9091 16.8182 20.9091 16.8182 20.8182L3.27273 20.9091C3.18182 20.9091 3.18182 20.9091 3.18182 20.8182V5.45455H6.90909H13.0909H16.8182V20.8182Z" fill="white"/>
</svg>
