<svg width="22" height="23" viewBox="0 0 22 23" fill="none" xmlns="http://www.w3.org/2000/svg">
<path d="M16.9952 16.9942H5.00476V5.01733H16.9952V16.9942ZM7.38409 14.6474H14.6276V7.36415H7.38409V14.6474Z" fill="white"/>
<path d="M20.8045 7.54913C21.4608 7.54913 21.9883 7.0289 21.9883 6.3815V0H15.7059C15.0495 0 14.5221 0.520231 14.5221 1.16763C14.5221 1.81503 15.0495 2.33526 15.7059 2.33526H19.6089V6.36994C19.6207 7.0289 20.1481 7.54913 20.8045 7.54913Z" fill="white"/>
<path d="M19.6207 15.7572V19.6647H15.7176C15.0613 19.6647 14.5338 20.1849 14.5338 20.8323C14.5338 21.4797 15.0613 22 15.7176 22H22V15.7456C22 15.0982 21.4725 14.578 20.8162 14.578C20.1481 14.578 19.6207 15.1098 19.6207 15.7572Z" fill="white"/>
<path d="M1.1838 14.578C0.527437 14.578 0 15.1098 0 15.7572V22.0115H6.22376C6.88013 22.0115 7.40757 21.4913 7.40757 20.8439C7.40757 20.1965 6.88013 19.6763 6.22376 19.6763H2.37933V15.7688C2.37933 15.1098 1.84017 14.578 1.1838 14.578Z" fill="white"/>
<path d="M2.37933 6.3815V2.34682H6.22376C6.88013 2.34682 7.40757 1.82659 7.40757 1.17919C7.40757 0.520231 6.88013 0 6.22376 0H0V6.3815C0 7.0289 0.527437 7.54913 1.1838 7.54913C1.84017 7.54913 2.37933 7.0289 2.37933 6.3815Z" fill="white"/>
</svg>
