<svg width="19" height="16" viewBox="0 0 19 16" fill="none" xmlns="http://www.w3.org/2000/svg">
<path d="M17.8299 2.39263L1.17917 2.2679C0.535603 2.2679 0.020752 1.74628 0.020752 1.12261C0.020752 0.498937 0.547305 0 1.19087 0C1.19087 0 1.19087 0 1.20257 0L17.8416 0.124734C18.4852 0.124734 19.0118 0.64635 19.0001 1.27002C19.0001 1.89369 18.4735 2.39263 17.8299 2.39263Z" fill="white"/>
<path d="M17.8092 9.19634L1.15842 9.07161C0.514852 9.07161 0 8.54999 0 7.92632C0 7.30265 0.526553 6.80371 1.17012 6.80371C1.17012 6.80371 1.17012 6.80371 1.18182 6.80371L17.8209 6.92845C18.4644 6.92845 18.991 7.45006 18.9793 8.07373C18.9793 8.6974 18.4527 9.19634 17.8092 9.19634Z" fill="white"/>
<path d="M17.8299 16.0001L1.17917 15.8753C0.535603 15.8753 0.020752 15.3537 0.020752 14.73C0.020752 14.1064 0.547305 13.6074 1.19087 13.6074C1.19087 13.6074 1.19087 13.6074 1.20257 13.6074L17.8416 13.7322C18.4852 13.7322 19.0118 14.2538 19.0001 14.8774C19.0001 15.5011 18.4735 16.0001 17.8299 16.0001Z" fill="white"/>
</svg>
