<svg width="22" height="20" viewBox="0 0 22 20" fill="none" xmlns="http://www.w3.org/2000/svg">
<path d="M18.3333 8.42419C17.8292 8.42419 17.4167 8.83669 17.4167 9.34086V17.5909H14.6667V11.1742H7.33333V17.5909H4.58333V9.34086C4.58333 8.83669 4.17083 8.42419 3.66666 8.42419C3.16249 8.42419 2.74999 8.83669 2.74999 9.34086V19.4242H9.16666V13.0075H12.8333V19.4242H19.25V9.34086C19.25 8.82753 18.8375 8.42419 18.3333 8.42419Z" fill="white"/>
<path d="M21.5784 6.72833L11.0001 0L0.421784 6.72833C0.000117044 7.00333 -0.128216 7.57167 0.146784 7.99333C0.421784 8.42417 0.98095 8.54333 1.41178 8.2775L11.0001 2.1725L20.5884 8.2775C20.7443 8.37833 20.9093 8.42417 21.0834 8.42417C21.386 8.42417 21.6793 8.2775 21.8534 8.0025C22.1284 7.57167 22.0001 7.00333 21.5784 6.72833Z" fill="white"/>
</svg>
