<svg width="21" height="21" viewBox="0 0 21 21" fill="none" xmlns="http://www.w3.org/2000/svg">
<path d="M10.0508 0C4.467 0 0 4.467 0 10.0508C0 15.6345 4.467 20.1015 10.0508 20.1015C15.533 20.1015 20.1015 15.6345 20.1015 10.0508C20.1015 4.467 15.533 0 10.0508 0ZM10.0508 17.9695C5.58376 17.9695 2.03046 14.4162 2.03046 10.0508C2.03046 5.58376 5.58376 2.03046 10.0508 2.03046C14.5178 2.03046 18.0711 5.58376 18.0711 10.0508C17.9695 14.4162 14.4162 17.9695 10.0508 17.9695Z" fill="white"/>
<path d="M10.0508 6.80206C10.3553 6.80206 10.5584 6.70054 10.7614 6.4975C10.9645 6.29445 11.066 6.0914 11.066 5.78683C11.066 5.48227 10.9645 5.27922 10.7614 5.07618C10.3553 4.67008 9.74618 4.67008 9.34009 5.07618C9.13705 5.27922 9.03552 5.48227 9.03552 5.78683C9.03552 6.0914 9.13705 6.29445 9.34009 6.4975C9.54314 6.70054 9.84771 6.80206 10.0508 6.80206Z" fill="white"/>
<path d="M11.0659 13.1979V8.02026H9.03549C8.42635 8.02026 8.02026 8.42635 8.02026 9.03549C8.02026 9.64463 8.42635 10.0507 9.03549 10.0507V13.1979C8.42635 13.1979 8.02026 13.604 8.02026 14.2132C8.02026 14.8223 8.42635 15.2284 9.03549 15.2284H11.0659C11.6751 15.2284 12.0812 14.8223 12.0812 14.2132C12.0812 13.604 11.6751 13.1979 11.0659 13.1979Z" fill="white"/>
</svg>
