<svg width="25" height="16" viewBox="0 0 25 16" fill="none" xmlns="http://www.w3.org/2000/svg">
<path d="M22.0249 0C20.508 0 19.2733 1.23472 19.2733 2.75165C19.2733 3.08091 19.3438 3.3984 19.4497 3.69238L13.2055 10.0423C12.9233 9.94827 12.6293 9.87772 12.3119 9.87772C11.9944 9.87772 11.7004 9.93651 11.4182 10.0423L5.29163 3.80997C5.43274 3.48072 5.50329 3.12795 5.50329 2.75165C5.50329 1.23472 4.26858 0 2.75165 0C1.23471 0 0 1.23472 0 2.75165C0 4.26859 1.23471 5.5033 2.75165 5.5033C3.02211 5.5033 3.28081 5.45626 3.52775 5.37395L9.73659 11.6886C9.63076 11.9826 9.56021 12.3001 9.56021 12.6294C9.56021 14.1463 10.7949 15.381 12.3119 15.381C13.8288 15.381 15.0635 14.1463 15.0635 12.6294C15.0635 12.3001 14.9929 11.9826 14.8871 11.6886L21.1312 5.33867C21.4135 5.43274 21.7074 5.5033 22.0249 5.5033C23.5419 5.5033 24.7766 4.26859 24.7766 2.75165C24.7766 1.23472 23.5419 0 22.0249 0ZM1.18768 2.73989C1.18768 1.86971 1.89323 1.16416 2.76341 1.16416C3.63358 1.16416 4.33913 1.86971 4.33913 2.73989C4.33913 3.61007 3.63358 4.31562 2.76341 4.31562C1.89323 4.31562 1.18768 3.61007 1.18768 2.73989ZM12.3119 14.1816C11.4417 14.1816 10.7361 13.476 10.7361 12.6058C10.7361 11.7357 11.4417 11.0301 12.3119 11.0301C13.182 11.0301 13.8876 11.7357 13.8876 12.6058C13.8876 13.476 13.182 14.1816 12.3119 14.1816ZM22.0249 4.31562C21.1548 4.31562 20.4492 3.61007 20.4492 2.73989C20.4492 1.86971 21.1548 1.16416 22.0249 1.16416C22.8951 1.16416 23.6007 1.86971 23.6007 2.73989C23.6007 3.61007 22.8951 4.31562 22.0249 4.31562Z" fill="white"/>
</svg>
