<svg width="12" height="8" viewBox="0 0 12 8" fill="none" xmlns="http://www.w3.org/2000/svg">
<path d="M1.61963 0.792079C1.61963 0.316832 1.32515 0 0.883436 0H0.736196C0.368098 0 0 0.316832 0 0.792079C0 1.26733 0.294479 1.58416 0.736196 1.58416H0.883436C1.25153 1.58416 1.54601 1.26733 1.61963 0.792079Z" fill="white"/>
<path d="M11.1902 0.0792079L3.82824 0C3.38652 0 3.09204 0.316832 3.09204 0.792079C3.09204 1.26733 3.38652 1.58416 3.82824 1.58416L11.2638 1.66337C11.6319 1.66337 12 1.34653 12 0.871287C11.9264 0.475248 11.6319 0.0792079 11.1902 0.0792079Z" fill="white"/>
<path d="M1.54601 3.96054C1.54601 3.48529 1.25153 3.16846 0.809816 3.16846H0.736196C0.368098 3.16846 0 3.48529 0 3.96054C0 4.43578 0.294479 4.75262 0.736196 4.75262H0.809816C1.25153 4.75262 1.54601 4.43578 1.54601 3.96054Z" fill="white"/>
<path d="M11.1901 3.24766L3.75451 3.16846C3.31279 3.16846 3.01831 3.48529 3.01831 3.96054C3.01831 4.43578 3.31279 4.75262 3.75451 4.75262L11.1901 4.83182C11.5582 4.83182 11.9263 4.51499 11.9263 4.03974C11.9263 3.6437 11.6318 3.24766 11.1901 3.24766Z" fill="white"/>
<path d="M1.54601 7.12875C1.54601 6.6535 1.25153 6.33667 0.809816 6.33667H0.736196C0.368098 6.33667 0 6.6535 0 7.12875C0 7.604 0.294479 7.92083 0.736196 7.92083H0.809816C1.17791 7.92083 1.54601 7.604 1.54601 7.12875Z" fill="white"/>
<path d="M11.1901 6.41588L3.75451 6.33667C3.31279 6.33667 3.01831 6.6535 3.01831 7.12875C3.01831 7.604 3.31279 7.92083 3.75451 7.92083L11.1901 8.00004C11.5582 8.00004 11.9263 7.6832 11.9263 7.20796C11.9263 6.81192 11.6318 6.41588 11.1901 6.41588Z" fill="white"/>
</svg>
