<svg width="19" height="19" viewBox="0 0 19 19" fill="none" xmlns="http://www.w3.org/2000/svg">
<path d="M7.53247 18.6876C7.32849 19.0716 6.76543 19.0302 6.61978 18.6205L0.352188 0.990656C0.211107 0.593814 0.593848 0.211012 0.990713 0.35203L18.6243 6.61778C19.035 6.7637 19.0754 7.32855 18.6897 7.53143L11.5665 11.2782C11.4776 11.325 11.4048 11.3975 11.3577 11.4862L7.53247 18.6876ZM4.2803 3.64145C3.88347 3.50062 3.50092 3.88337 3.64195 4.28012L6.98045 13.6722C7.12599 14.0817 7.68853 14.1234 7.89285 13.7399L9.88768 9.99575C9.9348 9.90729 10.0074 9.83504 10.0961 9.78837L13.7194 7.88176C14.1052 7.67879 14.0646 7.11385 13.6538 6.96808L4.2803 3.64145Z" fill="white"/>
</svg>
