<svg id="Layer_1" data-name="Layer 1" xmlns="http://www.w3.org/2000/svg" viewBox="0 0 21.79 25.37"><defs><style>.cls-1{fill:#fff;}</style></defs><title>ndvi</title><path class="cls-1" d="M16.35,3.45a3.45,3.45,0,0,0-6.9,0c0,1.91,3.45,6.73,3.45,6.73S16.35,5.36,16.35,3.45Zm-4.81-.13A1.36,1.36,0,1,1,12.9,4.68,1.36,1.36,0,0,1,11.54,3.32Z"/><path class="cls-1" d="M21.78,3.27H17.84c0,.06,0,.12,0,.18a5.37,5.37,0,0,1-.39,1.77h2.35V20.94L1.94,5.29V5.22H8.35A5.16,5.16,0,0,1,8,3.45c0-.06,0-.12,0-.18H0v22.1H21.79V3.27ZM8.88,13.71,1.94,22.3V7.64ZM3.34,23.39l6.87-8.51,9.6,8.41v.1Z"/></svg>