<svg width="20" height="20" viewBox="0 0 20 20" fill="none" xmlns="http://www.w3.org/2000/svg">
<path d="M18.9838 1.01729C18.2445 0.278039 17.2163 -0.0788427 16.0946 0.0146263C15.0239 0.0995981 13.9957 0.600932 13.1884 1.39967L12.5851 2.00297L2.37935 12.2166L1.77601 12.8199C0.212442 14.3834 0.0424884 18.6235 0.025493 19.1078L0 20L0.900754 19.9745C1.37662 19.9575 5.61696 19.7876 7.18054 18.2241L17.9981 7.40718L18.6014 6.80388C20.3009 5.10444 20.4794 2.5043 18.9838 1.01729ZM16.2391 1.70557C16.8594 1.65458 17.4032 1.83302 17.7856 2.2154C18.4485 2.87818 18.4739 3.97431 17.9216 4.926L15.0749 2.07944C15.4403 1.86701 15.8397 1.73955 16.2391 1.70557ZM1.78451 18.2156C1.88648 17.0685 2.12442 15.6749 2.52381 14.7572L5.24307 17.4763C4.32532 17.8757 2.9317 18.1136 1.78451 18.2156ZM6.5857 16.4227L3.57752 13.4147L13.7917 3.20107L16.7999 6.20907L6.5857 16.4227Z" fill="white"/>
</svg>
