<svg width="22" height="22" viewBox="0 0 22 22" fill="none" xmlns="http://www.w3.org/2000/svg">
<path d="M0 0V22H22V0H0ZM20.0045 1.96692V13.7979L15.2952 8.07421L9.19909 15.283L5.59728 11.7327L1.99546 15.3026V1.96692H20.0045ZM1.99546 20.0331V16.6893L5.60726 13.1292L9.26893 16.7385L15.2853 9.62807L20.0045 15.3616V20.0331H1.99546Z" fill="white"/>
<path d="M7.5 10C8.87372 10 10 8.88034 10 7.49573C10 6.11111 8.87372 5 7.5 5C6.12628 5 5 6.11966 5 7.50427C5 8.88889 6.11775 10 7.5 10ZM7.5 5.8547C8.40444 5.8547 9.14676 6.58974 9.14676 7.50427C9.14676 8.4188 8.40444 9.1453 7.5 9.1453C6.59556 9.1453 5.85324 8.41026 5.85324 7.50427C5.85324 6.59829 6.58703 5.8547 7.5 5.8547Z" fill="white"/>
</svg>
