<svg width="19" height="25" viewBox="0 0 19 25" fill="none" xmlns="http://www.w3.org/2000/svg">
<path d="M9.11334 11.4769C7.59641 11.4769 6.36169 10.2422 6.36169 8.72527C6.36169 7.20834 7.59641 5.97363 9.11334 5.97363C10.6303 5.97363 11.865 7.20834 11.865 8.72527C11.865 10.2422 10.6303 11.4769 9.11334 11.4769ZM9.11334 7.16132C8.24316 7.16132 7.53761 7.86686 7.53761 8.73704C7.53761 9.60722 8.24316 10.3128 9.11334 10.3128C9.98352 10.3128 10.6891 9.60722 10.6891 8.73704C10.6891 7.86686 9.98352 7.16132 9.11334 7.16132Z" fill="white"/>
<path d="M9.12512 24.4121L8.30198 23.6124C7.96096 23.2832 0 15.4986 0 9.11336C0 4.08043 4.09219 0 9.11336 0C14.1345 0 18.2267 4.09219 18.2267 9.11336C18.2267 15.3692 10.2775 23.2714 9.9365 23.6007L9.12512 24.4121ZM9.11336 2.35184C5.3857 2.35184 2.35183 5.3857 2.35183 9.11336C2.35183 13.088 6.66745 18.4854 9.11336 21.0724C11.0771 18.9558 15.8866 13.3349 15.8866 9.11336C15.8866 5.3857 12.841 2.35184 9.11336 2.35184Z" fill="white"/>
</svg>
