<svg width="17" height="18" viewBox="0 0 17 18" fill="none" xmlns="http://www.w3.org/2000/svg">
<path d="M15.23 8.16999L10.01 8.12999C9.8 7.77999 9.49 7.50999 9.13 7.30999L9.17 1.99999C9.17 1.44999 8.73 0.99999 8.18 0.98999C8.18 0.98999 8.18 0.98999 8.17 0.98999C7.62 0.98999 7.17 1.42999 7.17 1.97999L7.13 7.22999C6.7 7.40999 6.35 7.70999 6.1 8.09999L1.01 8.05999C0.48 8.02999 0 8.49999 0 9.04999C0 9.59999 0.44 10.05 0.99 10.06L5.83 10.1C6.04 10.73 6.49 11.24 7.09 11.51L7.05 16.22C7.05 16.77 7.49 17.22 8.04 17.23C8.04 17.23 8.04 17.23 8.05 17.23C8.6 17.23 9.05 16.79 9.05 16.24L9.09 11.46C9.63 11.19 10.04 10.72 10.24 10.14L15.21 10.18C15.21 10.18 15.21 10.18 15.22 10.18C15.77 10.18 16.22 9.73999 16.22 9.18999C16.23 8.61999 15.78 8.16999 15.23 8.16999ZM8.05 10.71C7.31 10.71 6.71 10.11 6.71 9.36999C6.71 8.62999 7.31 8.02999 8.05 8.02999C8.79 8.02999 9.39 8.62999 9.39 9.36999C9.39 10.11 8.78 10.71 8.05 10.71Z" fill="white"/>
</svg>
