<svg width="26" height="26" viewBox="0 0 26 26" fill="none" xmlns="http://www.w3.org/2000/svg">
<path d="M23.2714 20.0964V5.22107C24.2004 4.77423 24.8471 3.84525 24.8471 2.75165C24.8471 1.23472 23.6124 0 22.0955 0C20.5786 0 19.3438 1.23472 19.3438 2.75165C19.3438 3.08091 19.4144 3.3984 19.5202 3.69238L13.2761 10.0423C12.9939 9.94826 12.6999 9.8777 12.3824 9.8777C12.0649 9.8777 11.7709 9.9365 11.4887 10.0423L5.36218 3.80997C5.50329 3.48071 5.57385 3.12794 5.57385 2.75165C5.57385 1.23472 4.33913 0 2.8222 0C1.30527 0 0.070555 1.23472 0.070555 2.75165C0.070555 3.78646 0.646754 4.66839 1.49341 5.13876V20.1317C0.611477 20.5903 0 21.5075 0 22.5658C0 24.0828 1.23471 25.3175 2.75165 25.3175C3.88053 25.3175 4.84478 24.6355 5.26811 23.6712H19.7201C20.1317 24.6825 21.1077 25.3998 22.2601 25.3998C23.777 25.3998 25.0118 24.1651 25.0118 22.6482C25 21.4958 24.2827 20.508 23.2714 20.0964ZM19.8612 21.3076H5.17404C4.88006 20.7549 4.42145 20.2963 3.84525 20.0494V5.62088L9.80715 11.6769C9.70132 11.9708 9.64252 12.2883 9.64252 12.6176C9.64252 14.1345 10.8772 15.3692 12.3942 15.3692C13.9111 15.3692 15.1458 14.1345 15.1458 12.6176C15.1458 12.2883 15.0753 11.9708 14.9694 11.6769L20.9313 5.62088V20.2493C20.4845 20.508 20.1199 20.8725 19.8612 21.3076ZM22.0955 1.17592C22.9657 1.17592 23.6712 1.88147 23.6712 2.75165C23.6712 3.62183 22.9657 4.32737 22.0955 4.32737C21.2253 4.32737 20.5198 3.62183 20.5198 2.75165C20.5198 1.88147 21.2371 1.17592 22.0955 1.17592ZM13.9581 12.6176C13.9581 13.4878 13.2526 14.1933 12.3824 14.1933C11.5122 14.1933 10.8067 13.4878 10.8067 12.6176C10.8067 11.7474 11.5122 11.0419 12.3824 11.0419C13.2526 11.0419 13.9581 11.7474 13.9581 12.6176ZM2.8222 1.17592C3.69238 1.17592 4.39793 1.88147 4.39793 2.75165C4.39793 3.62183 3.69238 4.32737 2.8222 4.32737C1.95202 4.32737 1.24647 3.62183 1.24647 2.75165C1.24647 1.88147 1.96378 1.17592 2.8222 1.17592ZM2.75165 24.1416C1.88147 24.1416 1.17592 23.436 1.17592 22.5658C1.17592 21.6957 1.88147 20.9901 2.75165 20.9901C3.62182 20.9901 4.32738 21.6957 4.32738 22.5658C4.32738 23.436 3.61007 24.1416 2.75165 24.1416ZM22.2484 24.2121C21.3782 24.2121 20.6726 23.5066 20.6726 22.6364C20.6726 21.7662 21.3782 21.0607 22.2484 21.0607C23.1185 21.0607 23.8241 21.7662 23.8241 22.6364C23.8241 23.5066 23.1185 24.2121 22.2484 24.2121Z" fill="white"/>
</svg>
