<svg width="24" height="19" viewBox="0 0 24 19" fill="none" xmlns="http://www.w3.org/2000/svg">
<path d="M23.2714 0H1.49341V12.8528C0.611477 13.3114 0 14.2286 0 15.2869C0 16.8039 1.23471 18.0386 2.75165 18.0386C3.88053 18.0386 4.84478 17.3565 5.26811 16.3923H23.2832V0H23.2714ZM2.75165 16.8509C1.88147 16.8509 1.17592 16.1571 1.17592 15.2869C1.17592 14.4167 1.88147 13.7112 2.75165 13.7112C3.62182 13.7112 4.32738 14.4167 4.32738 15.2869C4.32738 16.1571 3.61007 16.8509 2.75165 16.8509ZM20.9196 14.0287H5.17404C4.88006 13.476 4.42145 13.0174 3.84525 12.7705V2.35183H20.9196V14.0287Z" fill="white"/>
</svg>
