<svg width="16" height="16" viewBox="0 0 16 16" fill="none" xmlns="http://www.w3.org/2000/svg">
<path d="M15.7286 14.4595L12.4946 11.2252C12.4406 11.1712 12.3685 11.1351 12.2964 11.0991C13.2063 9.93694 13.7558 8.46847 13.7558 6.88288C13.7648 3.09009 10.6749 0 6.88239 0C3.08987 0 0 3.09009 0 6.88288C0 10.6757 3.08987 13.7658 6.88239 13.7658C8.46787 13.7658 9.93623 13.2162 11.0983 12.3063C11.1343 12.3694 11.1704 12.4414 11.2244 12.5045L14.4584 15.7387C14.6386 15.9189 14.8638 16 15.098 16C15.3322 16 15.5575 15.9099 15.7376 15.7387C16.0889 15.3784 16.0889 14.8108 15.7286 14.4595ZM6.88239 11.964C4.08079 11.964 1.80167 9.68468 1.80167 6.88288C1.80167 4.08108 4.08079 1.8018 6.88239 1.8018C9.684 1.8018 11.9631 4.08108 11.9631 6.88288C11.9631 9.68468 9.684 11.964 6.88239 11.964Z" fill="white"/>
</svg>
