<svg version="1.1"  xmlns="http://www.w3.org/2000/svg" xmlns:xlink="http://www.w3.org/1999/xlink" x="0px" y="0px"
	 viewBox="0 0 512 512" style="enable-background:new 0 0 512 512;" xml:space="preserve" fill="white" width="24" height="24">
<g><path d="m499.394 237.364-471.982-187.41c-16.306-6.474-32.489 9.83-25.907 26.149l56.465 139.955c2.051 5.083 6.09 9.102 11.175 11.121l72.581 28.82-72.581 28.82c-5.086 2.019-9.125 6.038-11.175 11.121l-56.466 139.955c-6.569 16.286 9.566 32.637 25.907 26.149l471.982-187.41c16.774-6.661 16.844-30.582.001-37.27zm-443.304 170.173 35.75-88.611 111.55-44.292c16.771-6.66 16.841-30.582 0-37.27l-111.55-44.293-35.75-88.611 381.641 151.538z"/></g></svg>