<svg width="24" height="24" viewBox="0 0 24 24" fill="none" xmlns="http://www.w3.org/2000/svg">
<path d="M23.2714 0H1.49341V18.556C0.611477 19.0146 0 19.9318 0 20.9901C0 22.5071 1.23471 23.7418 2.75165 23.7418C3.88053 23.7418 4.84478 23.0597 5.26811 22.0955H23.2832V0H23.2714ZM2.75165 22.5658C1.88147 22.5658 1.17592 21.8603 1.17592 20.9901C1.17592 20.1199 1.88147 19.4144 2.75165 19.4144C3.62182 19.4144 4.32738 20.1199 4.32738 20.9901C4.32738 21.8603 3.61007 22.5658 2.75165 22.5658ZM20.9196 19.7436H5.17404C4.88006 19.191 4.42145 18.7324 3.84525 18.4854V2.35183H20.9196V19.7436Z" fill="white"/>
</svg>
