<!-- Generator: Adobe Illustrator 19.0.0, SVG Export Plug-In . SVG Version: 6.00 Build 0)  -->
<svg version="1.1" id="Capa_1" xmlns="http://www.w3.org/2000/svg" xmlns:xlink="http://www.w3.org/1999/xlink" x="0px" y="0px"
	 viewBox="0 0 512 512" style="enable-background:new 0 0 512 512;" xml:space="preserve" fill="white" width="24" height="24">
<g>
	<g>
		<g>
			<polygon points="452.688,404.688 416,441.376 416,384 384,384 384,441.376 347.312,404.688 324.688,427.312 400,502.624 
				475.312,427.312 			"/>
			<path d="M384,160v64h32v-64C415.903,71.675,344.325,0.097,256,0v32C326.66,32.079,383.921,89.34,384,160z"/>
			<path d="M128,352v-64H96v64c0.097,88.325,71.675,159.903,160,160v-32C185.34,479.921,128.079,422.66,128,352z"/>
			<rect x="96" y="224" width="32" height="32"/>
			<rect x="96" y="160" width="32" height="32"/>
			<polygon points="96,128 128,128 128,70.624 164.688,107.312 187.312,84.688 112,9.376 36.688,84.688 59.312,107.312 96,70.624 
							"/>
			<rect x="384" y="256" width="32" height="32"/>
			<rect x="384" y="320" width="32" height="32"/>
		</g>
	</g>
</g>

</svg>
