<svg width="20" height="20" viewBox="0 0 20 20" fill="none" xmlns="http://www.w3.org/2000/svg">
<path d="M0 0V20H20V0H0ZM18.1892 1.78492V15.4395C16.469 13.8688 13.4993 12.8514 10.0498 12.8514C6.52784 12.8514 3.50385 13.9134 1.81077 15.5377V1.78492H18.1892ZM17.9176 18.2151H2.19104C2.60751 16.2338 6.03893 14.6363 10.0498 14.6363C14.0607 14.6363 17.4921 16.2338 17.9176 18.2151Z" fill="white"/>
<path d="M10.0498 11.6555C12.3676 11.6555 14.2598 9.79022 14.2598 7.50552C14.2598 5.22083 12.3766 3.35559 10.0498 3.35559C7.73198 3.35559 5.83972 5.22083 5.83972 7.50552C5.83972 9.79022 7.73198 11.6555 10.0498 11.6555ZM10.0498 5.14051C11.3716 5.14051 12.449 6.20253 12.449 7.50552C12.449 8.80851 11.3716 9.87054 10.0498 9.87054C8.72791 9.87054 7.65955 8.80851 7.65955 7.50552C7.65955 6.20253 8.72791 5.14051 10.0498 5.14051Z" fill="white"/>
</svg>
