<svg width="20" height="21" viewBox="0 0 20 21" fill="none" xmlns="http://www.w3.org/2000/svg">
<path d="M20 10.0461C20 4.51613 15.576 0.0921659 10.0461 0C10.0461 0 10.0461 0 9.95392 0C4.51613 0 0 4.51613 0 10.0461C0 15.576 4.51613 20.0922 10.0461 20.0922C10.0461 20.0922 10.0461 20.0922 10.1383 20.0922C15.576 20 20 15.4839 20 10.0461ZM10.1383 18.1567C10.0461 18.1567 10.0461 18.1567 10.1383 18.1567C9.12442 18.1567 8.01843 16.5899 7.37327 14.1014H12.8111C12.1659 16.5899 11.0599 18.1567 10.1383 18.1567ZM7.00461 12.3502C6.91244 11.6129 6.82028 10.8756 6.82028 10.0461C6.82028 9.30876 6.82028 8.6636 6.91244 8.01843H13.0876C13.1797 8.6636 13.1797 9.30876 13.1797 10.0461C13.1797 10.8756 13.0876 11.6129 12.9954 12.3502H7.00461ZM10.0461 1.84332C11.1521 1.84332 12.2581 3.59447 12.8111 6.17512H7.28111C7.92627 3.59447 9.03226 1.84332 10.0461 1.84332ZM15.023 8.01843H17.9724C18.1567 8.6636 18.2489 9.30876 18.2489 10.0461C18.2489 10.8756 18.1567 11.6129 17.8802 12.3502H15.023C15.1152 11.6129 15.1152 10.8756 15.1152 10.0461C15.1152 9.30876 15.023 8.6636 15.023 8.01843ZM17.235 6.17512H14.7465C14.47 4.79263 14.1014 3.59447 13.5484 2.67281C15.1152 3.41014 16.4055 4.6083 17.235 6.17512ZM6.63594 2.58065C6.08295 3.59447 5.71429 4.79263 5.43779 6.17512H2.85714C3.68664 4.6083 4.97696 3.31797 6.63594 2.58065ZM2.11982 8.01843H5.16129C5.06912 8.6636 5.06913 9.30876 5.06913 10.0461C5.06913 10.8756 5.06912 11.6129 5.16129 12.3502H2.11982C1.93549 11.6129 1.75115 10.8756 1.75115 10.0461C1.84332 9.30876 1.93549 8.6636 2.11982 8.01843ZM2.94931 14.1936H5.43779C5.71429 15.4839 6.08295 16.5899 6.63594 17.5115C5.06912 16.7742 3.87097 15.576 2.94931 14.1936ZM13.5484 17.4194C14.0092 16.4977 14.3779 15.3917 14.6544 14.1936H17.0507C16.2212 15.576 15.023 16.682 13.5484 17.4194Z" fill="white"/>
</svg>
